HIERARCHY
ROOT Hips
{
	OFFSET 0.000000 0.000000 0.000000 
	CHANNELS 6 Xposition Yposition Zposition Zrotation Xrotation Yrotation
	JOINT Spine
	{
		OFFSET -0.000000 8.285670 0.000000 
		CHANNELS 3 Zrotation Xrotation Yrotation
		JOINT Spine1
		{
			OFFSET 0.001290 19.616402 0.001621 
			CHANNELS 3 Zrotation Xrotation Yrotation
			JOINT Neck
			{
				OFFSET -0.000000 22.301800 0.000000 
				CHANNELS 3 Zrotation Xrotation Yrotation
				JOINT Head
				{
					OFFSET 0.000021 14.531684 1.875025 
					CHANNELS 3 Zrotation Xrotation Yrotation
					End Site
					{
						OFFSET -0.000000 20.208887 0.000000 
					}
				}
			}
			JOINT LeftShoulder
			{
				OFFSET 3.887530 15.503099 -0.416373 
				CHANNELS 3 Zrotation Xrotation Yrotation
				JOINT LeftArm
				{
					OFFSET 20.767099 0.000000 0.000000 
					CHANNELS 3 Zrotation Xrotation Yrotation
					JOINT LeftForeArm
					{
						OFFSET 26.608500 0.000000 0.000000 
						CHANNELS 3 Zrotation Xrotation Yrotation
						JOINT LeftHand
						{
							OFFSET 23.716986 -0.000831 0.000936 
							CHANNELS 3 Zrotation Xrotation Yrotation
							End Site
							{
								OFFSET 15.156667 0.000000 0.000000 
							}
						}
					}
				}
			}
			JOINT RightShoulder
			{
				OFFSET -4.190880 15.503099 -0.416373 
				CHANNELS 3 Zrotation Xrotation Yrotation
				JOINT RightArm
				{
					OFFSET -20.767099 0.000000 0.000000 
					CHANNELS 3 Zrotation Xrotation Yrotation
					JOINT RightForeArm
					{
						OFFSET -26.608500 0.000000 0.000000 
						CHANNELS 3 Zrotation Xrotation Yrotation
						JOINT RightHand
						{
							OFFSET -25.317501 0.000209 -0.000757 
							CHANNELS 3 Zrotation Xrotation Yrotation
							End Site
							{
								OFFSET -15.156667 0.000000 0.000000 
							}
						}
					}
				}
			}
		}
	}
	JOINT LeftUpLeg
	{
		OFFSET 10.104500 0.000000 0.000000 
		CHANNELS 3 Zrotation Xrotation Yrotation
		JOINT LeftLeg
		{
			OFFSET -0.000000 -50.743301 0.000000 
			CHANNELS 3 Zrotation Xrotation Yrotation
			JOINT LeftFoot
			{
				OFFSET -0.000000 -35.579197 0.000000 
				CHANNELS 3 Zrotation Xrotation Yrotation
				JOINT LeftToeBase
				{
					OFFSET -0.000000 -6.567910 15.156700 
					CHANNELS 3 Zrotation Xrotation Yrotation
					End Site
					{
						OFFSET -0.000000 0.000000 4.041778 
					}
				}
			}
		}
	}
	JOINT RightUpLeg
	{
		OFFSET -10.104500 0.000000 0.000000 
		CHANNELS 3 Zrotation Xrotation Yrotation
		JOINT RightLeg
		{
			OFFSET -0.000000 -50.743301 0.000000 
			CHANNELS 3 Zrotation Xrotation Yrotation
			JOINT RightFoot
			{
				OFFSET -0.000000 -35.579197 0.000000 
				CHANNELS 3 Zrotation Xrotation Yrotation
				JOINT RightToeBase
				{
					OFFSET -0.000000 -6.567910 15.156700 
					CHANNELS 3 Zrotation Xrotation Yrotation
					End Site
					{
						OFFSET -0.000000 0.000000 4.041778 
					}
				}
			}
		}
	}
}
MOTION
Frames: 9
Frame Time: 0.010000
-5.721203 89.585838 47.428722 2.282898 3.184854 -25.367199 -7.260030 -6.008894 -4.438394 4.629938 3.094035 -1.477791 -1.623238 0.203115 1.650440 2.201528 5.928306 1.090311 -2.700518 1.837476 -3.583048 -60.345692 22.603222 -22.262035 -7.982068 3.004398 -9.627199 -19.529793 0.784066 8.988821 -8.564093 4.698317 -4.202351 79.086472 28.228167 16.913342 8.773122 -6.785717 2.748288 25.659307 -6.435709 2.473853 1.033970 -8.473292 -4.832222 -5.443309 27.055380 -28.717693 24.463356 -19.262806 18.507843 0.000000 0.000000 0.000000 -11.943093 -20.725531 -11.439805 -4.830317 44.525154 -15.285554 1.668853 -20.814766 -2.772852 0.000000 0.000000 0.000000 
-5.796746 89.588074 47.798347 2.311314 3.203905 -25.609686 -7.309649 -6.067106 -4.637652 4.697002 3.116894 -1.544884 -1.628375 0.241042 1.681049 2.208966 5.921028 1.119551 -2.727372 1.685261 -3.784553 -59.330833 22.286112 -22.755814 -9.468528 3.116342 -9.817328 -18.766588 0.809564 9.028359 -8.537415 4.792532 -4.279870 79.018799 28.299059 17.012751 8.791290 -6.813046 2.713757 25.661184 -6.466129 2.450423 1.009813 -8.090370 -4.681132 -5.460974 26.680647 -28.618700 24.491871 -19.340565 18.488297 0.000000 0.000000 0.000000 -11.913330 -21.108458 -11.664203 -4.796903 44.194958 -14.735339 1.668853 -20.814766 -2.772852 0.000000 0.000000 0.000000 
-5.880028 89.588722 48.165272 2.340030 3.223955 -25.847889 -7.352765 -6.126135 -4.833603 4.761490 3.138069 -1.610807 -1.634621 0.278146 1.711446 2.214722 5.914576 1.148653 -2.756465 1.537162 -3.978616 -58.298355 21.926504 -23.238838 -11.025517 3.248094 -10.029802 -17.968756 0.842023 9.083035 -8.511523 4.887523 -4.357750 78.949478 28.370977 17.110987 8.809619 -6.841072 2.677960 25.662991 -6.497113 2.427034 0.989061 -7.725658 -4.528806 -5.487338 26.362572 -28.517714 24.529158 -19.434189 18.468296 0.000000 0.000000 0.000000 -11.875088 -21.464457 -11.880971 -4.740711 43.813705 -14.174485 1.668853 -20.814766 -2.772852 0.000000 0.000000 0.000000 
-5.971166 89.587830 48.529457 2.368845 3.244752 -26.081320 -7.389389 -6.184958 -5.026089 4.823537 3.156543 -1.675545 -1.642210 0.314880 1.741691 2.218952 5.908752 1.177701 -2.787924 1.393458 -4.164980 -57.251793 21.524820 -23.707855 -12.647230 3.400791 -10.263591 -17.140482 0.881794 9.152895 -8.486541 4.983377 -4.435707 78.878746 28.444370 17.208084 8.827490 -6.869974 2.640885 25.665007 -6.528843 2.403731 0.967920 -7.359263 -4.375309 -5.511184 26.060160 -28.420761 24.578447 -19.540239 18.453976 0.000000 0.000000 0.000000 -11.828118 -21.793043 -12.088256 -4.661850 43.382576 -13.607124 1.668853 -20.814766 -2.772852 0.000000 0.000000 0.000000 
-6.070260 89.585426 48.891029 2.397525 3.265931 -26.310057 -7.419550 -6.242511 -5.215070 4.883109 3.171576 -1.739028 -1.651008 0.351004 1.771844 2.221727 5.903843 1.206732 -2.821587 1.254325 -4.343228 -58.253273 20.531382 -22.314045 -11.025188 4.076108 -12.680874 -18.166189 1.152412 10.604011 -8.462413 5.079797 -4.513577 78.806557 28.519466 17.304010 8.845043 -6.899761 2.602746 25.667295 -6.561332 2.380507 0.948741 -7.000704 -4.220488 -5.532620 25.774124 -28.328564 24.625641 -19.646051 18.437464 0.000000 0.000000 0.000000 -11.772144 -22.093754 -12.284303 -4.561092 42.903042 -13.037459 1.668853 -20.814766 -2.772852 0.000000 0.000000 0.000000 
-6.177449 89.581566 49.249874 2.425818 3.287269 -26.534060 -7.443168 -6.297693 -5.400419 4.940258 3.182130 -1.801271 -1.661137 0.386726 1.802063 2.223181 5.899917 1.235833 -2.857535 1.120053 -4.512900 -59.197147 19.406904 -20.961779 -9.573757 4.748727 -15.104415 -19.133669 1.445232 12.050467 -8.439200 5.176816 -4.591059 78.732994 28.596457 17.398804 8.862242 -6.930502 2.563579 25.669703 -6.594611 2.357508 0.931901 -6.649785 -4.064174 -5.551695 25.504938 -28.241261 24.670778 -19.751862 18.418640 0.000000 0.000000 0.000000 -11.706784 -22.366220 -12.467322 -4.439291 42.376469 -12.469036 1.668853 -20.814766 -2.772852 0.000000 0.000000 0.000000 
-6.292885 89.576302 49.606091 2.453427 3.308357 -26.752806 -7.460126 -6.349283 -5.582088 4.994925 3.187309 -1.862143 -1.672763 0.422141 1.832439 2.223680 5.896862 1.265083 -2.895696 0.990960 -4.673635 -59.481621 19.787973 -21.014196 -8.139957 4.497768 -15.330031 -19.923573 1.302649 11.937237 -8.416984 5.274182 -4.667849 78.658333 28.675655 17.492378 8.878829 -6.962272 2.523378 25.672356 -6.628735 2.334889 0.917623 -6.306101 -3.906232 -5.568225 25.253044 -28.159702 24.714327 -19.857738 18.398006 0.000000 0.000000 0.000000 -11.631785 -22.610165 -12.635381 -4.297339 41.804897 -11.905640 1.668853 -20.814766 -2.772852 0.000000 0.000000 0.000000 
-6.416758 89.569672 49.959663 2.480000 3.328812 -26.966461 -7.470342 -6.395984 -5.759918 5.047144 3.186039 -1.921629 -1.685762 0.457261 1.863048 2.223081 5.894981 1.294531 -2.936081 0.867386 -4.824821 -59.722710 20.182837 -21.095139 -6.789440 4.234632 -15.510930 -20.666107 1.155676 11.799280 -8.395808 5.371798 -4.743584 78.582626 28.757141 17.584669 8.894926 -6.995080 2.482365 25.675201 -6.663741 2.312646 0.906261 -5.969196 -3.746701 -5.582176 25.018736 -28.084034 24.756456 -19.963917 18.375616 0.000000 0.000000 0.000000 -11.546860 -22.825304 -12.786682 -4.136377 41.190243 -11.350775 1.668853 -20.814766 -2.772852 0.000000 0.000000 0.000000 
-6.549177 89.561737 50.310543 2.505160 3.348269 -27.175045 -7.473582 -6.436444 -5.933746 5.096878 3.177292 -1.979653 -1.700334 0.492187 1.894006 2.221739 5.894193 1.324265 -2.978717 0.749686 -4.965891 -59.922062 20.589546 -21.202675 -5.522411 3.962613 -15.649445 -21.360834 1.005378 11.639688 -8.375693 5.469395 -4.818011 78.505936 28.841450 17.675535 8.910261 -7.029083 2.440630 25.678375 -6.699694 2.291035 0.898260 -5.638607 -3.585740 -5.571806 24.729523 -28.023575 24.750521 -20.021709 18.329781 0.000000 0.000000 0.000000 -11.451673 -23.011557 -12.919479 -3.957936 40.534882 -10.807662 1.668853 -20.814766 -2.772852 0.000000 0.000000 0.000000 
